<?xml version="1.0" encoding="UTF-8" standalone="no"?>
<svg
   xmlns:dc="http://purl.org/dc/elements/1.1/"
   xmlns:cc="http://creativecommons.org/ns#"
   xmlns:rdf="http://www.w3.org/1999/02/22-rdf-syntax-ns#"
   xmlns:svg="http://www.w3.org/2000/svg"
   xmlns="http://www.w3.org/2000/svg"
   style="fill:none"
   id="svg827"
   version="1.1"
   viewBox="0 0 32.041504 32"
   height="32"
   width="32.041504">
  <metadata
     id="metadata833">
    <rdf:RDF>
      <cc:Work
         rdf:about="">
        <dc:format>image/svg+xml</dc:format>
        <dc:type
           rdf:resource="http://purl.org/dc/dcmitype/StillImage" />
        <dc:title></dc:title>
      </cc:Work>
    </rdf:RDF>
  </metadata>
  <defs
     id="defs831" />
  <path
     style="fill:#00171f"
     id="path825"
     d="m 16.02433,7.7956 c -4.5462,0 -8.2132198,3.6631 -8.2132198,8.2044 0,4.5413 3.6670198,8.2044 8.2132198,8.2044 4.5462,0 8.2132,-3.6631 8.2132,-8.2044 0,-4.5413 -3.667,-8.2044 -8.2132,-8.2044 z m 0,13.5383 c -2.9379,0 -5.3397,-2.392 -5.3397,-5.3339 0,-2.9419 2.3947,-5.3339 5.3397,-5.3339 2.945,0 5.3396,2.392 5.3396,5.3339 0,2.9419 -2.4017,5.3339 -5.3396,5.3339 z M 26.48913,7.46 c 0,1.06393 -0.8577,1.91365 -1.9157,1.91365 -1.065,0 -1.9157,-0.85686 -1.9157,-1.91365 0,-1.05679 0.8578,-1.91364 1.9157,-1.91364 1.058,0 1.9157,0.85685 1.9157,1.91364 z m 5.4398,1.94221 c -0.1216,-2.56343 -0.7077,-4.8341 -2.5877,-6.7049 -1.8728,-1.87080095 -4.1459,-2.45631895 -6.7121,-2.58484795 -2.6448,-0.1499494 -10.572,-0.1499494 -13.2167997,0 -2.5590601,0.121388 -4.8321701,0.706906 -6.71213,2.57770795 -1.87995005,1.8708 -2.45895005,4.14147 -2.58762005,6.7049 -0.150107,2.64193 -0.150107,10.56073 0,13.20273 0.12152,2.5634 0.70767,4.8341 2.58762005,6.7049 1.8799599,1.8708 4.1459199,2.4563 6.71213,2.5848 2.6447997,0.15 10.5719997,0.15 13.2167997,0 2.5662,-0.1214 4.8393,-0.7069 6.7121,-2.5848 1.8728,-1.8708 2.459,-4.1415 2.5877,-6.7049 0.1501,-2.642 0.1501,-10.5536 0,-13.19559 z m -3.4168,16.03039 c -0.5576,1.3995 -1.637,2.4777 -3.0451,3.0418 -2.1087,0.8354 -7.1124,0.6426 -9.4427,0.6426 -2.3303,0 -7.3411398,0.1857 -9.4426898,-0.6426 -1.40104,-0.557 -2.4804,-1.6352 -3.0450999,-3.0418 -0.83634,-2.1065 -0.64334,-7.1048 -0.64334,-9.4326 0,-2.3278 -0.18585,-7.33326 0.64334,-9.43256 C 4.0940902,5.16791 5.1734602,4.0897 6.5816402,3.52561 8.6903302,2.69017 13.69403,2.88296 16.02433,2.88296 c 2.3303,0 7.3411,-0.18565 9.4427,0.64265 1.401,0.55695 2.4804,1.63516 3.0451,3.04183 0.8363,2.10644 0.6433,7.10476 0.6433,9.43256 0,2.3278 0.193,7.3333 -0.6433,9.4326 z" />
</svg>
