<svg width="34" height="32" viewBox="0 0 34 32" fill="none" xmlns="http://www.w3.org/2000/svg">
<path d="M16.999 7.7956C12.4528 7.7956 8.78578 11.4587 8.78578 16C8.78578 20.5413 12.4528 24.2044 16.999 24.2044C21.5452 24.2044 25.2122 20.5413 25.2122 16C25.2122 11.4587 21.5452 7.7956 16.999 7.7956ZM16.999 21.3339C14.0611 21.3339 11.6593 18.9419 11.6593 16C11.6593 13.0581 14.054 10.6661 16.999 10.6661C19.944 10.6661 22.3386 13.0581 22.3386 16C22.3386 18.9419 19.9369 21.3339 16.999 21.3339V21.3339ZM27.4638 7.46C27.4638 8.52393 26.6061 9.37365 25.5481 9.37365C24.4831 9.37365 23.6324 8.51679 23.6324 7.46C23.6324 6.40321 24.4902 5.54636 25.5481 5.54636C26.6061 5.54636 27.4638 6.40321 27.4638 7.46ZM32.9036 9.40221C32.782 6.83878 32.1959 4.56811 30.3159 2.69731C28.4431 0.826509 26.17 0.240991 23.6038 0.112462C20.959 -0.0374874 13.0318 -0.0374874 10.387 0.112462C7.82794 0.23385 5.55483 0.819368 3.67487 2.69017C1.79492 4.56097 1.21592 6.83164 1.08725 9.39507C0.937143 12.037 0.937143 19.9558 1.08725 22.5978C1.20877 25.1612 1.79492 27.4319 3.67487 29.3027C5.55483 31.1735 7.82079 31.759 10.387 31.8875C13.0318 32.0375 20.959 32.0375 23.6038 31.8875C26.17 31.7661 28.4431 31.1806 30.3159 29.3027C32.1887 27.4319 32.7749 25.1612 32.9036 22.5978C33.0537 19.9558 33.0537 12.0442 32.9036 9.40221V9.40221ZM29.4868 25.4326C28.9292 26.8321 27.8498 27.9103 26.4417 28.4744C24.333 29.3098 19.3293 29.117 16.999 29.117C14.6687 29.117 9.65786 29.3027 7.55631 28.4744C6.15527 27.9174 5.07591 26.8392 4.51121 25.4326C3.67487 23.3261 3.86787 18.3278 3.86787 16C3.86787 13.6722 3.68202 8.66674 4.51121 6.56744C5.06876 5.16791 6.14813 4.0897 7.55631 3.52561C9.665 2.69017 14.6687 2.88296 16.999 2.88296C19.3293 2.88296 24.3401 2.69731 26.4417 3.52561C27.8427 4.08256 28.9221 5.16077 29.4868 6.56744C30.3231 8.67388 30.1301 13.6722 30.1301 16C30.1301 18.3278 30.3231 23.3333 29.4868 25.4326Z" fill="#00171F"/>
</svg>
