<svg width="40" height="32" viewBox="0 0 40 32" fill="none" xmlns="http://www.w3.org/2000/svg">
<path d="M35.4366 7.97497C35.4616 8.32495 35.4616 8.67501 35.4616 9.025C35.4616 19.6999 27.3279 32 12.462 32C7.88203 32 3.6275 30.6749 0.048645 28.375C0.699366 28.45 1.32497 28.475 2.00073 28.475C5.77972 28.475 9.2585 27.2 12.0365 25.025C8.48267 24.95 5.50447 22.625 4.47836 19.425C4.97893 19.4999 5.47944 19.55 6.00505 19.55C6.7308 19.55 7.45663 19.4499 8.13232 19.275C4.42836 18.5249 1.6503 15.275 1.6503 11.35V11.25C2.72641 11.85 3.97785 12.225 5.30418 12.275C3.12684 10.8249 1.70037 8.34996 1.70037 5.54994C1.70037 4.04997 2.10072 2.67497 2.80152 1.47496C6.7808 6.37496 12.7622 9.5749 19.4694 9.92497C19.3443 9.32496 19.2691 8.70002 19.2691 8.07501C19.2691 3.62496 22.873 0 27.3528 0C29.6803 0 31.7825 0.974998 33.2591 2.55C35.0861 2.20002 36.8379 1.52498 38.3897 0.600004C37.7889 2.47505 36.5126 4.05005 34.8358 5.04998C36.4626 4.87506 38.0393 4.42496 39.4908 3.80003C38.3898 5.39996 37.0133 6.8249 35.4366 7.97497V7.97497Z" fill="#00171F"/>
</svg>
