<?xml version="1.0" encoding="UTF-8" standalone="no"?>
<svg
   xmlns:dc="http://purl.org/dc/elements/1.1/"
   xmlns:cc="http://creativecommons.org/ns#"
   xmlns:rdf="http://www.w3.org/1999/02/22-rdf-syntax-ns#"
   xmlns:svg="http://www.w3.org/2000/svg"
   xmlns="http://www.w3.org/2000/svg"
   style="fill:none"
   id="svg827"
   version="1.1"
   viewBox="0 0 32.041504 32"
   height="32"
   width="32.041504">
  <metadata
     id="metadata833">
    <rdf:RDF>
      <cc:Work
         rdf:about="">
        <dc:format>image/svg+xml</dc:format>
        <dc:type
           rdf:resource="http://purl.org/dc/dcmitype/StillImage" />
        <dc:title></dc:title>
      </cc:Work>
    </rdf:RDF>
  </metadata>
  <defs
     id="defs831" />
  <path
     id="path1423"
     d="m 28.71077,9.5346883 c 0.02028,0.283944 0.02028,0.5679527 0.02028,0.8519047 0,8.660704 -6.59899,18.639956 -18.659912,18.639956 -3.7157975,0 -7.1675603,-1.075073 -10.071138,-2.941016 0.5279395,0.06085 1.0355012,0.08113 1.5837553,0.08113 3.0659501,0 5.8883355,-1.034427 8.1421677,-2.799036 -2.8832745,-0.06085 -5.2995318,-1.947155 -6.13203,-4.543362 0.4061198,0.06077 0.8121909,0.101414 1.238626,0.101414 0.5888116,0 1.1776882,-0.08121 1.7258854,-0.223112 C 3.5533273,18.094 1.2994462,15.457309 1.2994462,12.272897 v -0.08113 c 0.8730639,0.486789 1.8883757,0.791032 2.9644467,0.831598 -1.766508,-1.176488 -2.9238241,-3.1844427 -2.9238241,-5.4561397 0,-1.2169479 0.3248098,-2.3325057 0.8933792,-3.3060914 3.2284484,3.9754424 8.081246,6.5716001 13.522895,6.8556171 -0.101495,-0.486797 -0.162506,-0.99382 -0.162506,-1.5008997 0,-3.6103908 2.923897,-6.5513741 6.558425,-6.5513741 1.888335,0 3.59388,0.7910302 4.791868,2.0688524 1.482274,-0.2839429 2.903535,-0.8316128 4.162533,-1.5820594 -0.487438,1.5212524 -1.522919,2.7990731 -2.883331,3.610331 1.319846,-0.1419152 2.599046,-0.5070879 3.77667,-1.0141028 -0.893258,1.2980469 -2.010033,2.4541219 -3.289232,3.3871899 z"
     style="fill:#00171f;stroke-width:0.8113147" />
</svg>
