<?xml version="1.0" encoding="UTF-8" standalone="no"?>
<svg
   xmlns:dc="http://purl.org/dc/elements/1.1/"
   xmlns:cc="http://creativecommons.org/ns#"
   xmlns:rdf="http://www.w3.org/1999/02/22-rdf-syntax-ns#"
   xmlns:svg="http://www.w3.org/2000/svg"
   xmlns="http://www.w3.org/2000/svg"
   style="fill:none"
   id="svg827"
   version="1.1"
   viewBox="0 0 32.041504 32"
   height="32"
   width="32.041504">
  <metadata
     id="metadata833">
    <rdf:RDF>
      <cc:Work
         rdf:about="">
        <dc:format>image/svg+xml</dc:format>
        <dc:type
           rdf:resource="http://purl.org/dc/dcmitype/StillImage" />
        <dc:title></dc:title>
      </cc:Work>
    </rdf:RDF>
  </metadata>
  <defs
     id="defs831" />
  <path
     id="path2001"
     d="M 31.331383,8.0852993 C 30.963336,6.6927831 29.878979,5.5960894 28.502177,5.223907 26.006678,4.5476113 16.000026,4.5476113 16.000026,4.5476113 c 0,0 -10.0066516,0 -12.5022135,0.6762957 C 2.1210315,5.5961459 1.0366955,6.6927831 0.66866973,8.0852993 0,10.609307 0,15.875389 0,15.875389 c 0,0 0,5.26613 0.66866973,7.790174 0.36802577,1.392487 1.45236177,2.443495 2.82914277,2.81564 2.4955619,0.676319 12.5022135,0.676319 12.5022135,0.676319 0,0 10.006582,0 12.502151,-0.676319 1.376802,-0.372145 2.461159,-1.423153 2.829206,-2.81564 C 32,21.141519 32,15.875389 32,15.875389 c 0,0 0,-5.266082 -0.668617,-7.7900897 z M 12.727242,20.656678 v -9.562494 l 8.363618,4.781346 z"
     style="fill:#00171f;stroke-width:0.70655972" />
</svg>
