<svg width="46" height="32" viewBox="0 0 46 32" fill="none" xmlns="http://www.w3.org/2000/svg">
<path d="M44.5456 5.00692C44.0247 3.03608 42.49 1.48392 40.5414 0.957167C37.0095 0 22.847 0 22.847 0C22.847 0 8.6845 0 5.15251 0.957167C3.20394 1.484 1.66927 3.03608 1.1484 5.00692C0.202026 8.57917 0.202026 16.0323 0.202026 16.0323C0.202026 16.0323 0.202026 23.4855 1.1484 27.0578C1.66927 29.0286 3.20394 30.5161 5.15251 31.0428C8.6845 32 22.847 32 22.847 32C22.847 32 37.0094 32 40.5414 31.0428C42.49 30.5161 44.0247 29.0286 44.5456 27.0578C45.4919 23.4855 45.4919 16.0323 45.4919 16.0323C45.4919 16.0323 45.4919 8.57917 44.5456 5.00692V5.00692ZM18.215 22.7993V9.26542L30.0521 16.0325L18.215 22.7993V22.7993Z" fill="#00171F"/>
</svg>
